<?xml version="1.0" ?><!DOCTYPE svg  PUBLIC '-//W3C//DTD SVG 1.1//EN'  'http://www.w3.org/Graphics/SVG/1.1/DTD/svg11.dtd'><svg enable-background="new 0 0 512 512" height="512px" id="PHP_Extention_1_" version="1.1" viewBox="0 0 512 512" width="512px" xml:space="preserve" xmlns="http://www.w3.org/2000/svg" xmlns:xlink="http://www.w3.org/1999/xlink"><g id="Rectangle_2_7_"><g><polygon fill="#C8C6C6" points="386,25 134,25 134,485 481,485 481,120.604   "/></g></g><g id="Rectangle_4_7_"><g><polygon fill="#E6E6E6" points="387,25 387,120 481,120   "/></g></g><g id="_x3C__x2F__x3E__2_"><g><path d="M183.813,331.611l87.21-59.884v25.992l-63.954,41.791v0.509l63.954,41.536v25.737l-87.21-59.883V331.611z" fill="#7F7F7F"/><path d="M281.2,417.486l42.515-183.982h15.625l-42.696,183.982H281.2z" fill="#7F7F7F"/><path d="M437.451,350.723l-87.209,56.57v-25.228l69.768-42.3v-0.51l-69.768-42.301v-25.228l87.209,56.57V350.723z" fill="#7F7F7F"/></g></g><g id="Rectangle_1_7_"><g><rect fill="#2E372E" height="108" width="326" x="30" y="48"/></g></g><g id="PHP"><g><path d="M117.261,67.566c4.206-0.817,10.112-1.43,18.435-1.43c8.413,0,14.409,1.838,18.436,5.514    c3.849,3.472,6.444,9.19,6.444,15.929c0,6.74-1.969,12.458-5.549,16.338c-4.653,5.003-11.544,7.25-19.599,7.25    c-1.79,0-3.401-0.102-4.654-0.306v24.609h-13.513V67.566z M130.774,98.813c1.164,0.306,2.595,0.409,4.564,0.409    c7.249,0,11.724-4.187,11.724-11.232c0-6.331-3.848-10.109-10.649-10.109c-2.774,0-4.654,0.307-5.638,0.613V98.813z" fill="#84E403"/><path d="M181.162,66.647v26.447h22.462V66.647h13.603v68.823h-13.603v-28.795h-22.462v28.795H167.47V66.647    H181.162z" fill="#84E403"/><path d="M227.345,67.566c4.206-0.817,10.112-1.43,18.435-1.43c8.413,0,14.408,1.838,18.435,5.514    c3.85,3.472,6.443,9.19,6.443,15.929c0,6.74-1.969,12.458-5.547,16.338c-4.654,5.003-11.545,7.25-19.6,7.25    c-1.79,0-3.401-0.102-4.654-0.306v24.609h-13.513V67.566z M240.858,98.813c1.164,0.306,2.595,0.409,4.564,0.409    c7.249,0,11.725-4.187,11.725-11.232c0-6.331-3.849-10.109-10.65-10.109c-2.774,0-4.654,0.307-5.638,0.613V98.813z" fill="#84E403"/></g></g></svg>